# xmcd
# Track frame offsets:
# 150
# 11391
# 28162
# 39012
# 53228
# 65504
# 82138
# 94843
# 109881
# 123298
#
# Disc length: 1852 seconds
# Revision: 0
# Processed by: cddbd v1.5.1PL0 Copyright (c) Steve Scherf et al.
# Submitted via: VisiTrax 2.9.10.228 - For more info visit www.synapsa.com
#
DISCID=7b073a0a
DTITLE=Porter Wagoner - 22 Grand Ole Godspel
DYEAR=2004
DGENRE=
TTITLE0=When the roll is called up yonder
TTITLE1=Thought of God
TTITLE2=I'll meet you in church Sunday morning
TTITLE3=Lord I'm coming home
TTITLE4=Heaven's just a prayer away
TTITLE5=Angel band
TTITLE6=Just over in the glory land
TTITLE7=Hold to God's unchanging hand
TTITLE8=Old cross raods
TTITLE9=Will there be any stars in my crown
EXTD=
EXTT0=
EXTT1=
EXTT2=
EXTT3=
EXTT4=
EXTT5=
EXTT6=
EXTT7=
EXTT8=
EXTT9=
PLAYORDER=
